<svg width="128" height="96" viewBox="0 0 128 96" fill="none" xmlns="http://www.w3.org/2000/svg">
<path d="M116 4H12C7.58172 4 4 7.58172 4 12V84C4 88.4183 7.55523 92 11.9735 92H94H116.003C120.421 92 124 88.4183 124 84V12C124 7.58172 120.418 4 116 4Z" stroke="white" stroke-width="8" stroke-linejoin="round"/>
<path d="M55.625 66.9639C57.7551 71.5018 64.1819 71.5814 66.4238 67.0977L73 53.9443L90.0273 88H10.3125L37.9883 29.3906L55.625 66.9639Z" fill="white" stroke="white" stroke-width="8" stroke-linejoin="round"/>
<path d="M92 21.7098C92 20.945 92.8237 20.4633 93.4903 20.8383L106.451 28.1284C107.13 28.5107 107.13 29.4893 106.451 29.8716L93.4903 37.1617C92.8237 37.5367 92 37.055 92 36.2902V21.7098Z" fill="white" stroke="white" stroke-width="4" stroke-linejoin="round"/>
</svg>
